<?xml version="1.0" standalone="no"?>
<!DOCTYPE svg PUBLIC "-//W3C//DTD SVG 20010904//EN"
 "http://www.w3.org/TR/2001/REC-SVG-20010904/DTD/svg10.dtd">
<svg version="1.0" xmlns="http://www.w3.org/2000/svg"
 width="435.000000pt" height="538.000000pt" viewBox="0 0 435.000000 538.000000"
 preserveAspectRatio="xMidYMid meet">
<metadata>
Created by potrace 1.15, written by Peter Selinger 2001-2017
</metadata>
<g transform="translate(0.000000,538.000000) scale(0.100000,-0.100000)"
fill="#000000" stroke="none">
<path d="M2317 5369 c-259 -38 -459 -130 -606 -278 l-75 -75 -75 -2 c-302 -7
-621 -144 -781 -337 -64 -77 -142 -235 -171 -347 -66 -249 28 -552 232 -746
81 -76 139 -116 237 -160 42 -20 84 -39 92 -43 13 -7 15 -74 18 -490 l2 -481
985 0 985 0 0 309 0 308 58 7 c186 21 382 103 495 206 151 139 235 309 271
551 12 80 12 107 0 184 -57 376 -238 609 -558 715 l-79 26 -26 75 c-111 314
-358 504 -739 570 -121 20 -171 22 -265 8z m278 -253 c266 -68 454 -226 533
-448 l27 -78 50 -16 c123 -40 243 -117 308 -196 122 -149 201 -393 176 -548
-58 -373 -268 -593 -621 -650 -62 -10 -87 -9 -163 5 -50 9 -117 27 -150 40
-36 15 -52 18 -40 9 40 -31 142 -78 215 -100 l75 -22 3 -221 2 -221 -800 0
-800 0 0 344 0 344 98 0 c55 0 132 7 177 17 88 19 208 56 201 62 -2 2 -44 -3
-92 -13 -169 -32 -375 4 -564 98 -214 106 -338 278 -385 532 -14 75 -13 88 4
171 71 341 296 542 685 610 49 8 112 15 140 15 49 0 54 3 101 51 90 92 216
165 350 204 173 51 301 54 470 11z"/>
<path d="M404 3507 c-21 -12 -18 -19 122 -307 79 -162 144 -298 144 -301 0 -7
-75 -49 -88 -49 -5 0 -83 127 -172 283 -89 155 -163 283 -165 285 -4 5 -55
-21 -55 -29 0 -4 63 -137 140 -295 77 -158 138 -294 136 -301 -3 -7 -22 -21
-42 -30 -33 -16 -37 -16 -47 -2 -7 9 -84 138 -171 287 -154 261 -160 270 -182
260 -13 -6 -24 -16 -24 -22 0 -5 104 -219 231 -474 l231 -464 55 -25 c35 -16
81 -28 122 -31 l67 -4 53 -122 c189 -427 594 -1193 859 -1626 178 -290 380
-565 382 -519 0 32 -71 251 -134 406 -198 495 -554 1198 -903 1786 l-94 158
35 71 c56 111 53 138 -40 317 -88 168 -426 761 -434 761 -3 -1 -15 -6 -26 -13z"/>
<path d="M4194 3395 c-128 -67 -209 -144 -328 -309 -115 -161 -226 -348 -386
-656 -59 -113 -135 -257 -168 -320 -73 -138 -112 -250 -112 -320 0 -48 -8 -65
-112 -238 -254 -425 -538 -962 -656 -1237 -51 -119 -112 -290 -112 -313 0 -13
84 75 165 173 193 233 612 872 876 1335 29 52 62 104 72 115 30 33 123 177
194 303 37 64 110 189 163 277 240 399 422 758 509 1005 47 136 53 165 40 194
-17 37 -62 34 -145 -9z"/>
<path d="M1854 1498 c177 -359 329 -666 337 -681 15 -28 18 -23 355 644 186
369 341 675 342 680 2 5 -292 9 -677 9 l-680 0 323 -652z"/>
</g>
</svg>
